<?xml version="1.0" encoding="UTF-8" standalone="no"?>
<!-- Uploaded to: SVG Repo, www.svgrepo.com, Generator: SVG Repo Mixer Tools -->

<svg
   width="1446.4014"
   height="1546.4014"
   viewBox="0 0 43.392042 46.392042"
   fill="none"
   version="1.1"
   id="svg1"
   sodipodi:docname="Blue_Xmas_ball_glowing.svg"
   inkscape:version="1.3.2 (091e20e, 2023-11-25, custom)"
   xmlns:inkscape="http://www.inkscape.org/namespaces/inkscape"
   xmlns:sodipodi="http://sodipodi.sourceforge.net/DTD/sodipodi-0.dtd"
   xmlns="http://www.w3.org/2000/svg"
   xmlns:svg="http://www.w3.org/2000/svg">
  <defs
     id="defs1">
    <filter
       inkscape:collect="always"
       style="color-interpolation-filters:sRGB"
       id="filter60"
       x="-0.94640129"
       y="-0.78866774"
       width="2.8928026"
       height="2.5773355">
      <feGaussianBlur
         inkscape:collect="always"
         stdDeviation="2.477508"
         id="feGaussianBlur60" />
    </filter>
  </defs>
  <sodipodi:namedview
     id="namedview1"
     pagecolor="#ffffff"
     bordercolor="#000000"
     borderopacity="0.25"
     inkscape:showpageshadow="2"
     inkscape:pageopacity="0.0"
     inkscape:pagecheckerboard="0"
     inkscape:deskcolor="#d1d1d1"
     inkscape:zoom="0.2534375"
     inkscape:cx="327.49692"
     inkscape:cy="791.12207"
     inkscape:window-width="1920"
     inkscape:window-height="1046"
     inkscape:window-x="-11"
     inkscape:window-y="-11"
     inkscape:window-maximized="1"
     inkscape:current-layer="g60" />
  <g
     id="g60">
    <path
       d="m 19.69602,17.465639 v -2.26962 c 0,-0.55228 0.4477,-1 1,-1 h 2 c 0.5523,0 1,0.44772 1,1 v 2.26962 m 2,7.23038 c 0,-2.2091 -1.7909,-4 -4,-4 m -7.5,4 c 0,4.1421 3.35786,7.5 7.5,7.5 4.1421,0 7.5,-3.3579 7.5,-7.5 0,-4.14214 -3.3579,-7.5 -7.5,-7.5 -4.14214,0 -7.5,3.35786 -7.5,7.5 z"
       stroke="#000000"
       stroke-width="2"
       stroke-linecap="round"
       stroke-linejoin="round"
       id="path53"
       style="opacity:0.66;fill:none;stroke:#21cfff;stroke-width:16.5;stroke-dasharray:none;stroke-opacity:1;filter:url(#filter60)" />
    <path
       d="m 19.654169,17.465639 v -2.26962 c 0,-0.55228 0.4477,-1 1,-1 h 2 c 0.5523,0 1,0.44772 1,1 v 2.26962 m 2,7.23038 c 0,-2.2091 -1.7909,-4 -4,-4 m -7.5,4 c 0,4.1421 3.35786,7.5 7.5,7.5 4.1421,0 7.5,-3.3579 7.5,-7.5 0,-4.14214 -3.3579,-7.5 -7.5,-7.5 -4.14214,0 -7.5,3.35786 -7.5,7.5 z"
       stroke="#000000"
       stroke-width="2"
       stroke-linecap="round"
       stroke-linejoin="round"
       id="path1"
       style="fill:#00ffff;stroke:#000e0a;stroke-width:2.00001;stroke-dasharray:none;stroke-opacity:1" />
  </g>
</svg>
